<svg width="187" height="37" viewBox="0 0 187 37" fill="none" xmlns="http://www.w3.org/2000/svg">
<path d="M15.4727 3.36365C6.86422 3.36365 0 10.1769 0 18.5C0 26.8232 6.96461 33.6364 15.4727 33.6364C23.9808 33.6364 30.9455 26.9214 30.9455 18.5C30.8325 10.1769 23.9683 3.36365 15.4727 3.36365ZM15.4727 23.0053C12.9128 23.0053 10.7544 21.0043 10.7544 18.3895C10.7544 15.8852 12.7998 13.7737 15.4727 13.7737C18.0327 13.7737 20.1911 15.7747 20.1911 18.3895C20.0782 21.0043 18.0327 23.0053 15.4727 23.0053Z" fill="#002F34"/>
<path d="M42.3819 0H33.6365V37H42.3819V0Z" fill="#002F34"/>
<path d="M64.5819 9.41815H58.8312L55.4514 12.8003L52.0716 9.41815H46.4182V15.2821L49.6886 18.5547L46.4182 21.8273V27.5818H52.1688L55.4392 24.3092L58.7097 27.5818H64.5697V21.8273L61.1898 18.5547L64.5697 15.2821V9.41815H64.5819Z" fill="#002F34"/>
<path d="M80.3531 25H83.4311V12.364H80.3531V17.314H75.5651V12.364H72.4871V25H75.5651V19.798H80.3531V25ZM93.3931 12.364H85.6531V25H93.3931V22.534H88.7311V19.762H92.8531V17.386H88.7311V14.83H93.3931V12.364ZM95.3914 12.364V25H102.501V22.624H98.4694V12.364H95.3914ZM107.048 18.016V14.848H108.722C109.946 14.848 110.468 15.46 110.468 16.432C110.468 17.404 109.946 18.016 108.722 18.016H107.048ZM113.6 16.432C113.6 14.11 112.052 12.364 108.956 12.364H103.97V25H107.048V20.464H108.956C112.178 20.464 113.6 18.52 113.6 16.432ZM118.494 18.664C118.494 22.444 121.122 25.09 124.848 25.09C127.854 25.09 130.122 23.416 130.842 20.68H127.458C126.936 21.76 125.982 22.3 124.812 22.3C122.922 22.3 121.626 20.896 121.626 18.664C121.626 16.432 122.922 15.028 124.812 15.028C125.982 15.028 126.936 15.568 127.458 16.648H130.842C130.122 13.912 127.854 12.22 124.848 12.22C121.122 12.22 118.494 14.884 118.494 18.664ZM140.467 12.364H132.727V25H140.467V22.534H135.805V19.762H139.927V17.386H135.805V14.83H140.467V12.364ZM150.692 12.364V20.194L145.544 12.364H142.466V25H145.544V17.206L150.692 25H153.77V12.364H150.692ZM155.317 14.83H158.665V25H161.743V14.83H165.091V12.364H155.317V14.83ZM174.376 12.364H166.636V25H174.376V22.534H169.714V19.762H173.836V17.386H169.714V14.83H174.376V12.364ZM183.052 16.468C183.052 17.458 182.512 18.052 181.36 18.052H179.452V14.92H181.36C182.512 14.92 183.052 15.532 183.052 16.468ZM176.374 12.364V25H179.452V20.23H180.19L182.818 25H186.292L183.376 19.996C185.32 19.42 186.184 17.926 186.184 16.342C186.184 14.146 184.636 12.364 181.54 12.364H176.374Z" fill="#002F34"/>
</svg>
